<svg xmlns="http://www.w3.org/2000/svg" width="48" height="48" fill="currentColor" viewBox="0 0 48 48">
    <path fill="#04ABBA" d="M18.544 6.682c-3.098.363-5.55 1.877-7.262 4.484-1.214 1.849-1.747 3.535-1.763 5.585l-.011 1.356-.32.064c-.177.035-.77.282-1.32.55-1.669.811-2.894 2.203-3.428 3.894-.87 2.75-.231 5.625 1.68 7.565.954.97 1.77 1.483 3.121 1.965.68.243.798.249 5.43.285l4.734.037-.029 4.86c-.016 2.673.003 4.848.043 4.833.039-.014 2.407-2.204 5.264-4.866l5.192-4.84h3.752c4.42 0 4.824-.053 6.51-.87 1.474-.713 2.457-1.662 3.1-2.993.555-1.145.962-3.264.779-4.05-.062-.266-.167-.77-.234-1.124-.066-.353-.308-1.034-.537-1.513-.875-1.83-2.551-3.117-4.86-3.733l-.856-.229-.078-.624c-.248-1.965-1.229-3.556-2.63-4.266-1.553-.786-3.391-.494-4.641.738-.51.502-.619.566-.619.361 0-.26-.975-2.16-1.49-2.908-.65-.938-1.937-2.21-2.882-2.847-.833-.562-2.197-1.2-3.06-1.431-.603-.162-2.373-.407-2.728-.378-.088.007-.474.05-.857.095ZM4.027 25.128c.001.236.023.32.049.186a1.17 1.17 0 0 0-.003-.428c-.026-.102-.047.007-.046.242Z"/>
    <path fill="#000" d="M22.503 18.604a1.444 1.444 0 1 1-2.888 0 1.444 1.444 0 0 1 2.888 0Zm-.778 2.535a2.626 2.626 0 0 1-2.41-.58l-3.44 2.47a2.62 2.62 0 1 1-.694-.95l3.453-2.479a2.62 2.62 0 1 1 4.132.992l2.032 3.79a2.629 2.629 0 0 1 2.298.622l3.514-2.523a2.62 2.62 0 1 1 .678.962l-3.52 2.526a2.62 2.62 0 1 1-4.04-1.091l-2.003-3.739Zm-8.26 4.364a1.444 1.444 0 1 0 0-2.888 1.444 1.444 0 0 0 0 2.888Zm11.872 2.887a1.444 1.444 0 1 0 0-2.887 1.444 1.444 0 0 0 0 2.887Zm9.144-6.898a1.444 1.444 0 1 1-2.887 0 1.444 1.444 0 0 1 2.887 0Z"/>
</svg>
