<svg xmlns="http://www.w3.org/2000/svg" width="48" height="48" fill="currentColor" viewBox="0 0 48 48">
    <path fill="#0895C9" d="M14.392 22.914a5.401 5.401 0 0 0-.964 2.104h-2.145a7.54 7.54 0 0 1 7.845-6.355 8.967 8.967 0 0 1 16.643-.074A8.282 8.282 0 0 1 45 26.839a7.902 7.902 0 0 1-1.343 4.452H41.26c.99-1.27 1.633-2.627 1.633-4.452a6.194 6.194 0 0 0-8.618-5.7 6.857 6.857 0 0 0-13.614-.013 5.403 5.403 0 0 0-6.27 1.788Zm22.284 7.863-2.611 3.98h2.483l3.28-4.999a6.9 6.9 0 0 0 .685-1.322c.174-.469.265-.965.27-1.465 0-2.58-1.974-4.219-4.091-4.219-2.15 0-4.076 1.735-4.076 4.235 0 2.357 1.815 3.821 3.487 3.838a2.2 2.2 0 0 0 .573-.048Zm-1.943-3.98c0-.925.685-2.04 1.975-2.04v.006c1.115 0 1.958.955 1.958 2.114 0 .875-.685 1.989-1.958 1.989-1.158 0-1.975-.875-1.975-2.07Z"/>
    <path fill="#0E3A51" d="M5.18 25.018h5.11c.097-.7.28-1.384.546-2.038H3v11.777h2.18v-4.819h4.734V27.9H5.18v-2.882Zm8.203.907h-2.117v8.836h2.117v-8.836Zm3.2 0h-2.292l3.565 8.832h1.657l3.581-8.832H20.77l-2.006 5.86h-.047l-2.134-5.86Zm12.834 6.274c-.413.583-1.06.908-1.897.908-1.517 0-2.34-1.243-2.436-1.816h6.862c.082-.35.124-.708.127-1.067 0-2.229-1.767-4.65-4.57-4.65-2.721 0-4.648 2.293-4.648 4.793a4.643 4.643 0 0 0 4.667 4.682c1.97 0 3.595-1.341 4.178-2.85h-2.283Zm-1.897-4.682c1.05 0 2.149.654 2.388 2.071h-4.889c.4-1.642 1.72-2.07 2.5-2.07Zm13.18 5.971h-.407l.004 1.077h.186v-.39h.241l.193.395h.206l-.233-.43a.324.324 0 0 0 .189-.313.35.35 0 0 0-.378-.339Zm.119.476a.186.186 0 0 1-.131.054h-.206v-.371h.206a.186.186 0 0 1 .131.317Z"/>
    <path fill="#0E3A51" d="M39.681 33.636a.989.989 0 0 0-.066.397h.002a1.034 1.034 0 0 0 2.066-.014c0-.567-.408-1.014-1.05-1.014a.99.99 0 0 0-.952.63Zm.953-.46c.541-.003.867.362.867.843H41.5c0 .488-.312.855-.848.862a.853.853 0 0 1-.018-1.706Z"/>
</svg>
