<svg xmlns="http://www.w3.org/2000/svg" width="48" height="48" fill="currentColor" viewBox="0 0 48 48">
    <path fill="#FF451A" d="M26.673 29.983H23.02a5.668 5.668 0 0 0-3.964 1.607 5.428 5.428 0 0 0-1.641 3.88c0 1.454.59 2.85 1.641 3.879a5.668 5.668 0 0 0 3.964 1.606h3.653a5.668 5.668 0 0 0 3.964-1.606 5.428 5.428 0 0 0 1.641-3.88c0-1.455-.59-2.85-1.641-3.88a5.668 5.668 0 0 0-3.964-1.606Zm-.356-14.18h-9.29a6.088 6.088 0 0 0-4.262 1.731A5.85 5.85 0 0 0 11 21.712a5.85 5.85 0 0 0 1.765 4.177 6.088 6.088 0 0 0 4.261 1.73h9.291c.792 0 1.575-.152 2.306-.449a6.036 6.036 0 0 0 1.956-1.28 5.904 5.904 0 0 0 1.306-1.917 5.809 5.809 0 0 0 0-4.522 5.902 5.902 0 0 0-1.306-1.917 6.036 6.036 0 0 0-1.956-1.28 6.131 6.131 0 0 0-2.306-.45ZM23.83 9.22a4.22 4.22 0 1 1 8.44 0 4.22 4.22 0 0 1-8.44 0Z"/>
</svg>
