<svg xmlns="http://www.w3.org/2000/svg" width="48" height="48" fill="currentColor" viewBox="0 0 48 48">
    <path fill="#010101" d="M4 9a5 5 0 0 1 5-5h30a5 5 0 0 1 5 5v30a5 5 0 0 1-5 5H9a5 5 0 0 1-5-5V9Z"/>
    <path fill="#FB8E8B" d="M32.967 11.569c.116.64-.09 1.11-.618 1.41-1.261.667-2.086 1.698-2.473 3.09l-1.649.722-1.286-.062c-.112-.005-.157-.062-.136-.169.194-1.03 1.393-1.208 2.214-1.513a.42.42 0 0 0 .264-.268c.626-1.758 1.854-2.828 3.684-3.21Z"/>
    <path fill="#DE2A28" d="M34.612 12.15c-.319-.574-.867-.768-1.645-.581.116.64-.09 1.11-.618 1.41l2.106-.479c.206-.05.259-.166.157-.35Zm-4.196 6.768a9.907 9.907 0 0 0-.54-2.848l-1.649.72c.643.608 1.18 1.365 1.608 2.272a.305.305 0 0 0 .581-.145Zm-1.414.638-.49.808c-.113.184-.197.17-.252-.041a.911.911 0 0 1 .091-.647.696.696 0 0 0 .07-.371c-.09-1.195-1.092-2.39-2.374-1.95-3.864 1.321-5.276 8.854-6.003 12.73l-.1.538c-.645 3.402-2.95 4.302-5.722 5.384-.207.08-.415.162-.626.246a.523.523 0 0 0-.083.931 2.63 2.63 0 0 0 1.624.404c6.38-.453 11.137-5.589 14.059-10.658 1.463-2.539 1.595-4.847.239-7.361a.251.251 0 0 0-.433-.013Z"/>
</svg>
