<svg xmlns="http://www.w3.org/2000/svg" viewBox="0 0 653 653" fill="none">
    <g clip-path="url(#a)">
        <path
                fill="#000"
                d="M374.096 351.192c-1.335 9.329-3.513 16.472-6.531 21.421-5.419 8.887-13.075 13.328-22.966 13.328-9.62 0-17.225-4.537-22.813-13.61-5.589-9.071-8.384-23.99-8.384-44.751 0-20.949 2.811-35.962 8.435-45.035 5.621-9.072 13.074-13.609 22.357-13.609 9.688 0 17.36 4.468 23.017 13.398 3.324 5.248 5.662 12.308 7.033 21.154h46.359c-2.413-22.67-8.734-41.05-18.993-55.103-13.415-18.379-32.52-27.568-57.315-27.568-24.186 0-43.054 9.354-56.603 28.058-13.551 18.707-20.324 44.847-20.324 78.423 0 24.039 3.421 44.051 10.264 60.045 6.842 15.992 15.767 27.685 26.777 35.07 11.008 7.392 24.914 11.084 41.715 11.084 16.529 0 30.333-4.28 41.41-12.838 11.076-8.555 19.546-20.528 25.405-35.914 3.629-9.526 6.131-20.714 7.512-33.556l-46.355.003zM27 220.505h42.325l55.234 117.562V220.505h42.726V433h-42.726L69.626 316.326V433H27V220.505zm172.205 0h45.427V433h-45.427V220.505zm237.241 0H557.92v45.369h-76.046v33.771h70.543v43.341h-70.543v41.889h78.247v48.122H436.446V220.505z"
        />
        <path
                fill="#0067AD"
                d="M198.981 301.928h-48.276v48.275h48.276v-48.275zm94.085 0h-48.275v48.275h48.275v-48.275zm174.923 0h-48.275v48.275h48.275v-48.275z"
        />
        <path
                fill="#000"
                d="M588.143 261.514v-25.839h10.981c2.761 0 4.767.232 6.02.696 1.25.466 2.252 1.29 3.004 2.478.752 1.185 1.129 2.542 1.129 4.072 0 1.938-.57 3.539-1.71 4.803-1.139 1.263-2.843 2.059-5.111 2.387 1.128.658 2.058 1.38 2.794 2.17.731.785 1.724 2.183 2.969 4.193l3.155 5.04h-6.24l-3.773-5.622c-1.338-2.01-2.256-3.277-2.75-3.799-.492-.525-1.016-.881-1.569-1.077-.552-.194-1.428-.29-2.626-.29h-1.058v10.787l-5.215.001zm5.217-14.912h3.86c2.502 0 4.066-.105 4.688-.317a2.811 2.811 0 0 0 1.463-1.093c.353-.516.529-1.163.529-1.937 0-.871-.233-1.573-.696-2.106-.466-.534-1.12-.873-1.966-1.014-.425-.059-1.692-.087-3.807-.087h-4.072l.001 6.554z"
        />
        <path
                stroke="#000"
                stroke-width="6.016"
                fill="#000"
                d="M598.835 273.146c13.568 0 24.567-10.976 24.567-24.516 0-13.54-10.999-24.516-24.567-24.516s-24.566 10.976-24.566 24.516c0 13.54 10.998 24.516 24.566 24.516z"
        />
    </g>
    <defs>
        <clipPath id="a">
            <path fill="#fff" d="M27 219h599.41v214H27z" />
        </clipPath>
    </defs>
</svg>