<svg xmlns="http://www.w3.org/2000/svg" width="48" height="48" fill="currentColor" viewBox="0 0 48 48">
    <path fill="#000" d="M27.991 27.272c.221-.363.381-.887.48-1.572h3.4c-.1.942-.284 1.764-.55 2.463-.43 1.129-1.052 2.007-1.865 2.635-.813.628-1.825.942-3.038.942-1.233 0-2.254-.27-3.061-.813-.808-.542-1.463-1.4-1.965-2.574s-.754-2.642-.754-4.406c0-2.464.497-4.382 1.492-5.755.994-1.372 2.379-2.059 4.153-2.059 1.82 0 3.222.675 4.206 2.023.753 1.032 1.217 2.38 1.394 4.044h-3.402c-.1-.65-.272-1.167-.516-1.552-.415-.656-.978-.984-1.689-.984-.681 0-1.228.333-1.64.999-.413.666-.62 1.767-.62 3.305 0 1.523.206 2.618.616 3.284.41.665.968.998 1.674.998.726 0 1.287-.326 1.685-.978ZM6.106 16.11H3v15.593h3.128v-8.561l4.031 8.561h3.135V16.11H10.16v8.627L6.106 16.11Zm12.864 0h-3.333v15.593h3.333V16.11Zm22.99 0h-8.915v15.593h9.076v-3.53h-5.742v-3.075h5.177v-3.18h-5.177V19.44h5.58v-3.33Zm.978 2.064c0-1.116.907-2.02 2.024-2.02s2.023.904 2.023 2.02-.906 2.02-2.023 2.02a2.022 2.022 0 0 1-2.024-2.02Zm2.024-1.578a1.58 1.58 0 0 0-1.582 1.578 1.58 1.58 0 0 0 1.582 1.579 1.58 1.58 0 0 0 1.582-1.579 1.58 1.58 0 0 0-1.582-1.578Zm-.785 2.524v-1.896h.806c.203 0 .35.017.442.05a.437.437 0 0 1 .22.182.546.546 0 0 1 .083.3.509.509 0 0 1-.125.352.602.602 0 0 1-.376.175.887.887 0 0 1 .206.16c.053.057.126.16.217.307l.232.37h-.458l-.277-.413a2.636 2.636 0 0 0-.202-.279.294.294 0 0 0-.115-.079.629.629 0 0 0-.192-.02h-.078v.79h-.383Zm.383-1.095h.283c.184 0 .299-.007.344-.023a.206.206 0 0 0 .108-.08.246.246 0 0 0 .038-.142.227.227 0 0 0-.05-.155.235.235 0 0 0-.145-.074 3.246 3.246 0 0 0-.28-.006h-.298v.48Z"/>
    <path fill="#0067AD" d="M15.62 22.085h-3.542v3.543h3.542v-3.543Zm6.904 0h-3.542v3.543h3.542v-3.543Zm12.836 0h-3.542v3.543h3.542v-3.543Z"/>
</svg>
