<svg xmlns="http://www.w3.org/2000/svg" width="48" height="48" fill="currentColor" viewBox="0 0 48 48">
    <path fill="#DA3743" d="M29.126 9a15.17 15.17 0 0 0-8.274 2.438 14.59 14.59 0 0 0-5.489 6.505 14.15 14.15 0 0 0-.852 8.378 14.387 14.387 0 0 0 4.071 7.428 15.014 15.014 0 0 0 7.622 3.971c2.888.561 5.882.275 8.603-.823a14.81 14.81 0 0 0 6.683-5.34A14.233 14.233 0 0 0 44 23.5c0-1.903-.383-3.788-1.13-5.547a14.475 14.475 0 0 0-3.224-4.704 14.913 14.913 0 0 0-4.826-3.143A15.226 15.226 0 0 0 29.126 9Zm0 18.123a3.791 3.791 0 0 1-2.068-.609 3.646 3.646 0 0 1-1.372-1.625 3.536 3.536 0 0 1-.212-2.094 3.595 3.595 0 0 1 1.017-1.856 3.75 3.75 0 0 1 1.905-.993 3.812 3.812 0 0 1 2.15.206 3.7 3.7 0 0 1 1.67 1.335 3.541 3.541 0 0 1 .344 3.4 3.62 3.62 0 0 1-.807 1.175 3.729 3.729 0 0 1-1.207.786 3.807 3.807 0 0 1-1.424.276h.004ZM3 23.5c0-.717.218-1.417.627-2.013.409-.596.99-1.06 1.67-1.335a3.812 3.812 0 0 1 2.149-.206c.722.14 1.384.485 1.905.992a3.6 3.6 0 0 1 1.018 1.855 3.54 3.54 0 0 1-.212 2.094 3.645 3.645 0 0 1-1.37 1.626 3.79 3.79 0 0 1-2.067.61 3.771 3.771 0 0 1-2.63-1.06A3.576 3.576 0 0 1 3 23.5Z"/>
</svg>
