<svg xmlns="http://www.w3.org/2000/svg" width="48" height="48" fill="currentColor" viewBox="0 0 48 48">
    <path fill="#00A1E0" d="M20.652 11.417a7.857 7.857 0 0 1 5.682-2.437c2.965 0 5.535 1.647 6.918 4.101a9.554 9.554 0 0 1 3.904-.832c5.337 0 9.668 4.365 9.668 9.751 0 5.386-4.331 9.75-9.668 9.75a9.759 9.759 0 0 1-1.91-.189c-1.211 2.158-3.526 3.624-6.161 3.624a7.033 7.033 0 0 1-3.097-.711c-1.227 2.882-4.084 4.908-7.412 4.908a8.05 8.05 0 0 1-7.56-5.27 7.42 7.42 0 0 1-1.538.16C5.344 34.271 2 30.877 2 26.711c0-2.8 1.505-5.239 3.739-6.556a8.664 8.664 0 0 1-.717-3.46C5.022 11.888 8.926 8 13.736 8a8.675 8.675 0 0 1 6.918 3.426l-.002-.009ZM8.529 24.265c-.023.06-.001.082.012.094a.052.052 0 0 1 .007.008c.065.046.13.083.196.12l.06.034c.457.242.889.313 1.34.313.92 0 1.49-.489 1.49-1.276v-.016c0-.728-.645-.993-1.248-1.182l-.079-.026c-.456-.148-.85-.277-.85-.576v-.016c0-.257.231-.446.587-.446.395 0 .866.131 1.168.298 0 0 .09.058.122-.028l.187-.505c.018-.048-.013-.084-.044-.103a2.603 2.603 0 0 0-1.318-.354h-.092c-.841 0-1.43.51-1.43 1.237v.016c0 .768.65 1.018 1.256 1.19l.097.031c.442.136.824.254.824.563v.016c0 .285-.249.497-.648.497a2.17 2.17 0 0 1-1.184-.34 2.076 2.076 0 0 1-.094-.06l-.057-.036c-.027-.016-.093-.045-.121.041l-.182.505h.001Zm13.456-.002c-.023.061 0 .082.013.095a.062.062 0 0 1 .007.007c.064.047.13.084.195.12l.06.035c.458.242.89.313 1.34.313.92 0 1.491-.49 1.491-1.277v-.015c0-.728-.644-.993-1.248-1.183l-.079-.025c-.456-.148-.85-.277-.85-.577v-.015c0-.257.23-.446.586-.446.396 0 .865.131 1.168.298 0 0 .09.057.122-.029.018-.046.172-.458.186-.504.018-.048-.013-.084-.044-.103a2.603 2.603 0 0 0-1.318-.354h-.092c-.841 0-1.43.509-1.43 1.237v.016c0 .767.65 1.017 1.256 1.19l.097.03c.443.136.824.254.824.564v.016c0 .285-.25.497-.648.497a2.17 2.17 0 0 1-1.184-.341 2.845 2.845 0 0 1-.12-.075l-.032-.02c-.016-.01-.094-.041-.12.041l-.182.504.002.002Zm9.19-1.542c0 .445-.084.795-.246 1.044-.162.245-.407.365-.748.365-.34 0-.585-.119-.745-.364-.16-.247-.242-.6-.242-1.044 0-.445.082-.794.242-1.04.16-.243.402-.36.745-.36.343 0 .586.118.748.36.163.246.245.595.245 1.04Zm0 0v.001-.002.001Zm.767-.824a1.853 1.853 0 0 0-.35-.667 1.67 1.67 0 0 0-.59-.448 1.93 1.93 0 0 0-.823-.165 1.94 1.94 0 0 0-.823.165c-.234.11-.433.26-.59.448a1.86 1.86 0 0 0-.349.667c-.075.254-.113.53-.113.825 0 .295.038.572.113.825.075.256.193.48.35.667.156.188.355.338.589.445.235.107.512.161.823.161.312 0 .588-.054.822-.16.234-.108.433-.258.59-.446.156-.187.273-.411.35-.667.074-.253.112-.53.112-.825 0-.293-.038-.571-.113-.825h.002Zm6.307 2.108c-.026-.074-.098-.046-.098-.046a1.765 1.765 0 0 1-.358.102c-.128.02-.27.03-.42.03-.37 0-.667-.11-.878-.33-.212-.219-.33-.571-.33-1.049.002-.435.107-.76.296-1.011.186-.247.472-.376.851-.376.316 0 .559.037.812.117 0 0 .06.026.09-.053l.026-.075.035-.096.128-.353c.02-.059-.03-.083-.048-.09a2.99 2.99 0 0 0-.513-.13 3.86 3.86 0 0 0-.576-.039c-.323 0-.61.056-.855.165a1.768 1.768 0 0 0-.992 1.115 2.65 2.65 0 0 0-.125.827c0 .636.172 1.151.51 1.528.34.38.85.57 1.516.57.394 0 .797-.08 1.087-.194 0 0 .056-.027.032-.091l-.19-.52Zm1.343-1.713h1.853c-.018-.239-.065-.452-.172-.613-.161-.243-.387-.377-.728-.377-.34 0-.583.134-.743.378-.106.16-.174.365-.21.612h-.009.009Zm2.586-.543a1.629 1.629 0 0 0-.333-.608 1.52 1.52 0 0 0-.494-.376 1.893 1.893 0 0 0-.745-.15c-.324 0-.62.054-.858.166a1.71 1.71 0 0 0-.598.456 1.876 1.876 0 0 0-.352.675 2.918 2.918 0 0 0-.114.829c0 .3.04.578.117.83.08.254.206.476.378.66.171.186.39.331.654.434.261.1.58.153.943.152.752-.002 1.147-.17 1.308-.26.029-.016.056-.044.022-.124l-.17-.476c-.025-.071-.097-.046-.097-.046a6.495 6.495 0 0 0-.052.02c-.184.071-.452.175-1.016.173-.403 0-.701-.12-.889-.306-.191-.191-.287-.47-.301-.865l2.602.002s.069 0 .076-.067v-.01a2.77 2.77 0 0 0-.078-1.109h-.003Zm-23.39.543h1.854c-.018-.239-.065-.452-.172-.613-.161-.243-.387-.377-.728-.377-.34 0-.583.134-.742.378-.107.16-.175.365-.211.612h-.009.009Zm2.587-.543a1.626 1.626 0 0 0-.333-.608 1.518 1.518 0 0 0-.494-.376 1.892 1.892 0 0 0-.745-.15c-.324 0-.62.054-.858.166-.239.112-.44.265-.598.456a1.882 1.882 0 0 0-.352.675 2.925 2.925 0 0 0-.114.829c0 .3.04.578.118.83.079.254.206.476.376.66.17.186.39.331.654.434a2.6 2.6 0 0 0 .943.152c.751-.002 1.147-.17 1.308-.26.029-.016.056-.044.022-.124l-.17-.476c-.026-.071-.098-.046-.098-.046a2.278 2.278 0 0 0-.026.01l-.025.01c-.184.071-.453.175-1.016.173-.402 0-.702-.12-.89-.306-.19-.191-.286-.47-.3-.865l2.602.002s.068 0 .075-.067l.002-.01c.01-.08.077-.56-.08-1.109h-.001Zm-8.203 2.24a.508.508 0 0 1-.15-.154.621.621 0 0 1-.078-.338c0-.227.076-.392.232-.502-.001 0 .224-.195.755-.188.236.004.471.024.705.06v1.18s-.33.072-.701.094c-.53.032-.763-.152-.761-.151l-.002-.001Zm1.034-1.829a5.742 5.742 0 0 0-.405-.011 2.47 2.47 0 0 0-.639.082c-.203.055-.385.14-.542.252a1.258 1.258 0 0 0-.377.428 1.252 1.252 0 0 0-.139.6c0 .23.04.43.12.593.077.162.193.301.338.407.145.105.323.182.53.229.203.046.434.07.688.07.267 0 .532-.023.789-.066.218-.038.436-.08.653-.127.087-.02.183-.046.183-.046.065-.017.06-.085.06-.085l-.002-2.372c0-.52-.139-.908-.413-1.146-.274-.24-.674-.36-1.193-.36-.194 0-.509.027-.696.064 0 0-.567.11-.801.294 0 0-.051.031-.023.103l.184.494c.023.064.085.042.085.042s.02-.008.043-.021c.5-.272 1.132-.264 1.132-.264.28 0 .497.057.642.168.142.11.214.274.214.62v.11c-.222-.033-.428-.051-.428-.051l-.003-.007Zm20.919-1.339a.07.07 0 0 0-.016-.078.071.071 0 0 0-.023-.015 2.285 2.285 0 0 0-.435-.074c-.326-.02-.508.035-.67.108-.162.072-.34.189-.439.324v-.316c0-.044-.03-.079-.075-.079h-.665c-.043 0-.075.035-.075.079v3.87a.079.079 0 0 0 .08.08h.681a.08.08 0 0 0 .056-.024.079.079 0 0 0 .023-.056v-1.943c0-.26.029-.519.086-.682a.978.978 0 0 1 .227-.382.79.79 0 0 1 .321-.193c.114-.032.231-.049.35-.049.135 0 .284.035.284.035.05.006.078-.025.095-.07.045-.119.172-.475.196-.545l-.001.01Zm-6.626-1.847c.087.015.173.035.257.06.018.008.068.033.047.091l-.198.546c-.017.041-.028.066-.113.04a1.575 1.575 0 0 0-.133-.032 1.083 1.083 0 0 0-.213-.022.902.902 0 0 0-.279.04.539.539 0 0 0-.218.136.755.755 0 0 0-.182.277 3.4 3.4 0 0 0-.137.586h.83c.07 0 .092.032.085.084l-.096.54c-.015.078-.088.076-.088.076h-.855l-.586 3.312a4.956 4.956 0 0 1-.228.873 1.725 1.725 0 0 1-.338.58c-.14.156-.298.27-.48.336a1.9 1.9 0 0 1-.638.099c-.114 0-.236-.002-.38-.036a1.938 1.938 0 0 1-.238-.07c-.032-.011-.058-.052-.04-.103l.193-.528c.027-.068.094-.042.094-.042l.003.001a.613.613 0 0 0 .137.044c.062.013.146.023.209.023a.964.964 0 0 0 .305-.044.481.481 0 0 0 .238-.184 1.29 1.29 0 0 0 .181-.369 4.11 4.11 0 0 0 .156-.64l.582-3.252h-.574c-.069 0-.091-.032-.084-.084l.096-.54c.016-.079.088-.076.088-.076h.59l.031-.176c.088-.522.264-.918.522-1.178.26-.263.63-.395 1.1-.395.12-.002.237.008.354.027Zm-11.425 5.76c.043 0 .074-.036.074-.08V19.11c0-.043-.031-.079-.075-.079h-.689c-.043 0-.074.036-.074.079v5.545c0 .044.03.08.075.08h.688Z"/>
    <path fill="#FFFFFE" d="M8.541 24.36c-.013-.013-.035-.034-.012-.095v-.002l.18-.504c.03-.086.095-.057.122-.041l.056.036.095.06a2.17 2.17 0 0 0 1.184.34c.4 0 .648-.212.648-.497v-.016c0-.31-.382-.427-.824-.563l-.097-.03c-.606-.173-1.255-.423-1.255-1.191v-.016c0-.728.588-1.237 1.43-1.237h.091c.494 0 .972.143 1.318.354.031.019.062.055.044.104-.016.046-.17.457-.187.504-.033.086-.122.028-.122.028a2.656 2.656 0 0 0-1.168-.298c-.356 0-.586.19-.586.446v.016c0 .3.393.428.85.576l.079.026c.602.189 1.248.454 1.248 1.182v.016c0 .787-.572 1.276-1.49 1.276-.452 0-.883-.07-1.341-.313a4.835 4.835 0 0 0-.06-.034l-.004-.002a1.955 1.955 0 0 1-.198-.125Zm13.457-.002c-.014-.013-.036-.034-.013-.095h-.002l.182-.505c.026-.082.104-.052.12-.041l.032.02.002.002c.035.022.069.044.118.073a2.166 2.166 0 0 0 1.184.341c.399 0 .648-.212.648-.497v-.016c0-.31-.38-.428-.824-.563l-.097-.03c-.606-.174-1.255-.424-1.255-1.191v-.016c0-.728.588-1.237 1.43-1.237h.091c.494 0 .972.143 1.318.354.031.019.062.055.044.103-.014.046-.168.458-.186.504-.032.086-.122.029-.122.029a2.662 2.662 0 0 0-1.167-.298c-.356 0-.587.189-.587.446v.015c0 .3.394.429.85.577l.079.025c.605.19 1.248.455 1.248 1.183v.015c0 .788-.571 1.277-1.49 1.277-.451 0-.883-.07-1.34-.313a7.673 7.673 0 0 0-.061-.035h-.002c-.065-.037-.13-.073-.193-.12a.062.062 0 0 0-.007-.007Zm8.93-.593c.163-.249.246-.6.246-1.044 0-.444-.082-.793-.245-1.038-.162-.243-.405-.36-.748-.36-.343 0-.585.116-.744.36-.16.245-.242.594-.242 1.04 0 .444.08.796.242 1.043.16.245.403.364.744.364.341 0 .586-.12.748-.365Zm.665-2.535c.156.188.273.412.349.667h-.002c.075.254.113.532.113.825 0 .295-.038.572-.113.825-.076.256-.193.48-.349.667a1.652 1.652 0 0 1-.59.445c-.234.107-.51.161-.822.161-.31 0-.588-.054-.823-.16a1.659 1.659 0 0 1-.59-.446 1.848 1.848 0 0 1-.349-.667 2.908 2.908 0 0 1-.113-.825c0-.295.038-.571.113-.825a1.86 1.86 0 0 1 .35-.667c.156-.188.355-.339.589-.448.235-.11.51-.165.823-.165.313 0 .59.055.824.165.235.109.433.26.59.448Zm6.558 2.729s.072-.028.098.046l.19.52c.024.065-.032.092-.032.092-.29.115-.693.194-1.087.194-.665 0-1.176-.19-1.515-.57-.34-.377-.51-.892-.51-1.528 0-.295.041-.573.125-.827a1.768 1.768 0 0 1 .991-1.115c.245-.11.532-.165.855-.165.217 0 .41.014.577.039.177.027.412.09.512.13.018.007.068.031.048.09l-.127.353-.03.081-.006.015-.017.049-.01.026c-.029.079-.089.053-.089.053a2.576 2.576 0 0 0-.812-.117c-.379 0-.665.129-.851.376-.189.25-.294.576-.295 1.011-.002.478.117.83.33 1.05.21.218.507.329.877.329.15 0 .292-.01.42-.03.127-.02.246-.06.358-.102Zm1.44-1.667h-.008.009Zm0 0c.037-.247.105-.453.212-.613.159-.243.401-.377.742-.377.341 0 .567.134.728.378.107.16.154.373.172.612h-1.853Zm2.254-1.151c.105.114.267.362.333.608h.003c.157.55.09 1.029.079 1.108v.006a.24.24 0 0 0-.001.005c-.007.067-.076.067-.076.067l-2.602-.002c.014.395.11.674.301.865.188.187.486.306.89.306.563.002.831-.102 1.016-.173l.011-.004.04-.015s.072-.026.098.045l.17.476c.033.08.006.108-.023.124-.161.09-.556.258-1.308.26a2.606 2.606 0 0 1-.943-.152 1.717 1.717 0 0 1-.654-.434 1.705 1.705 0 0 1-.377-.66 2.801 2.801 0 0 1-.118-.83c0-.293.038-.573.114-.829.076-.258.194-.484.352-.675a1.71 1.71 0 0 1 .598-.456c.239-.112.534-.167.858-.167.256 0 .51.051.745.151.163.07.326.196.494.376Zm-23.056 1.15v.001h-.009.009Zm1.853.001h-1.853c.037-.247.104-.453.21-.613.16-.243.402-.377.743-.377.341 0 .567.134.728.378.107.16.154.373.172.612Zm.4-1.151c.105.114.267.362.333.608h.002a2.8 2.8 0 0 1 .079 1.109l-.001.005v.005c-.008.067-.076.067-.076.067l-2.603-.002c.015.395.11.674.302.865.187.187.487.306.89.306.562.002.83-.102 1.015-.173l.01-.004.015-.005.026-.01s.072-.026.098.045l.17.476c.034.08.007.108-.022.124-.161.09-.557.258-1.308.26a2.6 2.6 0 0 1-.944-.152 1.717 1.717 0 0 1-.653-.434 1.72 1.72 0 0 1-.376-.66 2.785 2.785 0 0 1-.118-.83c0-.293.038-.573.114-.829.076-.258.195-.484.352-.675a1.71 1.71 0 0 1 .598-.456c.239-.112.534-.167.858-.167.256 0 .51.051.745.151.163.07.326.196.494.376Zm-8.02 2.694a.507.507 0 0 0 .15.154h.002c-.002 0 .232.184.76.152a5.2 5.2 0 0 0 .702-.093v-1.181a5.268 5.268 0 0 0-.705-.06c-.53-.007-.756.188-.754.188-.157.11-.233.275-.233.502 0 .145.027.258.078.338Zm.78-1.686c.162 0 .3.004.405.011l.002.007s.206.018.428.05v-.11c0-.345-.072-.51-.214-.619-.145-.11-.362-.168-.642-.168 0 0-.633-.008-1.132.264-.023.014-.042.021-.042.021s-.063.022-.086-.042l-.184-.494c-.028-.072.023-.103.023-.103.234-.184.8-.294.8-.294.188-.037.503-.064.697-.064.52 0 .92.12 1.193.36.274.238.413.625.413 1.146l.002 2.372s.005.068-.06.085c0 0-.096.026-.182.046-.218.047-.436.09-.654.127a4.76 4.76 0 0 1-.79.066c-.253 0-.483-.024-.688-.07a1.423 1.423 0 0 1-.528-.23 1.078 1.078 0 0 1-.34-.406 1.353 1.353 0 0 1-.119-.593c0-.227.047-.428.14-.6.09-.17.22-.316.376-.428.157-.113.34-.197.542-.252.201-.054.417-.082.64-.082Zm21.328-1.355c0 .01-.002.019-.005.027l.001-.01c-.024.07-.151.426-.196.545-.017.045-.044.076-.094.07 0 0-.15-.035-.285-.035-.119 0-.236.017-.35.05a.79.79 0 0 0-.32.192.978.978 0 0 0-.228.382c-.057.163-.086.422-.086.682v1.944a.079.079 0 0 1-.079.078h-.682a.078.078 0 0 1-.055-.023.078.078 0 0 1-.023-.056v-3.87c0-.044.03-.079.074-.079h.665c.044 0 .075.035.075.079v.316c.1-.135.277-.252.438-.324.164-.073.345-.128.67-.108.17.01.391.057.436.074a.071.071 0 0 1 .044.066Zm-6.374-1.76a2.018 2.018 0 0 0-.61-.088c-.47 0-.84.133-1.1.396-.259.26-.434.656-.523 1.178l-.031.176h-.59s-.072-.003-.087.076l-.097.54c-.007.052.015.084.084.084h.575l-.583 3.251a4.082 4.082 0 0 1-.156.641 1.314 1.314 0 0 1-.18.37.481.481 0 0 1-.239.183.964.964 0 0 1-.305.044c-.063 0-.147-.01-.209-.023a.587.587 0 0 1-.136-.044l-.004-.001s-.067-.026-.094.042a51.69 51.69 0 0 0-.192.528c-.019.051.007.091.04.103a1.568 1.568 0 0 0 .618.106 1.9 1.9 0 0 0 .637-.099c.182-.066.34-.18.48-.335.152-.167.247-.342.338-.581.09-.237.167-.53.228-.873l.586-3.312h.856s.072.002.087-.076l.097-.54c.006-.052-.016-.084-.085-.084h-.83v-.008l.003-.013a3.4 3.4 0 0 1 .133-.565.755.755 0 0 1 .183-.277.539.539 0 0 1 .217-.136.902.902 0 0 1 .279-.04c.078 0 .155.01.213.022.081.017.112.026.133.032.085.026.096.001.113-.04l.199-.546c.02-.058-.03-.083-.048-.09Zm-11.608 5.62c0 .044-.03.08-.074.08h-.69c-.043 0-.074-.036-.074-.08V19.11c0-.043.031-.079.075-.079h.689c.043 0 .074.036.074.079v5.545Z"/>
</svg>
