<svg xmlns="http://www.w3.org/2000/svg" width="48" height="48" fill="currentColor" viewBox="0 0 48 48">
    <path fill="#F22F46" d="M23.816 6C13.986 6 6.01 14.064 6.01 24s7.977 18 17.807 18c9.83 0 17.808-8.064 17.808-18S33.645 6 23.816 6Zm0 31.248c-7.265 0-13.106-5.904-13.106-13.248 0-7.344 5.84-13.248 13.106-13.248 7.265 0 13.106 5.904 13.106 13.248 0 7.344-5.84 13.248-13.106 13.248Z"/>
    <path fill="#F22F46" d="M28.232 23.281c2.046 0 3.704-1.676 3.704-3.744 0-2.067-1.658-3.744-3.704-3.744-2.045 0-3.703 1.677-3.703 3.744 0 2.068 1.658 3.744 3.703 3.744Zm0 8.926c2.046 0 3.704-1.676 3.704-3.744 0-2.068-1.658-3.744-3.704-3.744-2.045 0-3.703 1.676-3.703 3.744 0 2.068 1.658 3.744 3.703 3.744Zm-8.832 0c2.045 0 3.704-1.676 3.704-3.744 0-2.068-1.659-3.744-3.704-3.744-2.046 0-3.704 1.676-3.704 3.744 0 2.068 1.658 3.744 3.704 3.744Zm0-8.926c2.045 0 3.704-1.676 3.704-3.744 0-2.067-1.659-3.744-3.704-3.744-2.046 0-3.704 1.677-3.704 3.744 0 2.068 1.658 3.744 3.704 3.744Z"/>
</svg>
