<svg xmlns="http://www.w3.org/2000/svg" width="48" height="48" fill="currentColor" viewBox="0 0 48 48">
    <path fill="#2BD269" d="M17.227 14.146a1.68 1.68 0 0 1 .641-.14V14h.039c.3.009.6.018.86.036h.003c.317.023.68.05.984.806.217.513.576 1.467.861 2.225a32.9 32.9 0 0 0 .423 1.098.806.806 0 0 1 .013.774 3.032 3.032 0 0 1-.472.714c-.075.08-.15.164-.225.249-.16.18-.321.36-.475.504-.225.21-.472.443-.225.892a13.36 13.36 0 0 0 2.405 3.143 11.486 11.486 0 0 0 3.54 2.32 1.2 1.2 0 0 0 .492.13.675.675 0 0 0 .49-.225c.28-.279 1.114-1.244 1.477-1.688a.675.675 0 0 1 .536-.314c.167.012.33.053.482.123.339.133 1.895.943 2.668 1.345l.358.186.182.092c.342.174.57.29.663.443.106.178.08 1.07-.328 2.091-.406 1.02-2.272 1.96-3.098 2.01-.08.004-.16.01-.24.017-.167.014-.341.029-.55.029-.754 0-1.917-.193-4.569-1.315-4.166-1.758-6.82-5.896-7.373-6.757a4.51 4.51 0 0 0-.094-.143l-.002-.003c-.222-.31-1.76-2.455-1.69-4.623.064-2.037 1.116-3.074 1.6-3.55l.089-.088c.15-.159.333-.286.535-.375Z"/>
    <path fill="#2BD269" d="M36.531 10.034a17.77 17.77 0 0 1 5.457 12.155 17.695 17.695 0 0 1-1.127 6.908 17.817 17.817 0 0 1-3.721 5.947 17.997 17.997 0 0 1-5.743 4.07 18.134 18.134 0 0 1-6.88 1.568H24c-2.7 0-5.366-.6-7.8-1.76L6.777 41H6.75a.139.139 0 0 1-.137-.156l1.592-9.441a17.717 17.717 0 0 1-2.203-8.875 17.726 17.726 0 0 1 2.519-8.791 17.93 17.93 0 0 1 6.58-6.403A18.13 18.13 0 0 1 24.018 5h.087a18.085 18.085 0 0 1 12.426 5.034Zm-12.53 27.544h.426l.016.006c3.9-.12 7.596-1.755 10.291-4.55a14.674 14.674 0 0 0 4.12-10.396 14.681 14.681 0 0 0-4.414-10.276 14.946 14.946 0 0 0-10.417-4.26h-.433a14.98 14.98 0 0 0-7.313 2.143 14.81 14.81 0 0 0-5.281 5.452 14.647 14.647 0 0 0-1.864 7.33 14.65 14.65 0 0 0 2.044 7.281l.274.46-1.18 6.407 6.39-1.496.482.25a14.994 14.994 0 0 0 6.86 1.65Z"/>
</svg>
